<svg width="29" height="29" viewBox="0 0 29 29" fill="none" xmlns="http://www.w3.org/2000/svg">
<g filter="url(#filter0_d_2141_17152)">
<path d="M14.5 21C20.299 21 25 16.299 25 10.5C25 4.70101 20.299 0 14.5 0C8.70101 0 4 4.70101 4 10.5C4 16.299 8.70101 21 14.5 21Z" fill="#3E3E5E"/>
<path d="M14.4998 19.5481C19.4703 19.5747 23.5213 15.5668 23.5479 10.5963C23.5745 5.62578 19.5667 1.5748 14.5961 1.54819C9.6256 1.52157 5.57462 5.52941 5.54801 10.4999C5.52139 15.4705 9.52923 19.5215 14.4998 19.5481Z" fill="white"/>
<path d="M13.6334 12.75C13.5586 12.75 13.4987 12.75 13.4238 12.6724L12.3161 11.5242C12.2861 11.4931 12.2712 11.4776 12.2712 11.4466C12.2562 11.4311 12.2412 11.369 12.2562 11.3069C12.2562 11.2759 12.2712 11.2604 12.2861 11.2449C12.3011 11.2293 12.3161 11.2138 12.331 11.1983C12.361 11.1673 12.376 11.1362 12.3909 11.1207C12.6604 10.8569 12.9149 10.5931 13.1843 10.3448C13.7831 9.73967 14.3819 9.13449 14.9807 8.52931C14.9807 8.49828 15.0256 8.31207 15.1603 8.26552C15.2052 8.25 15.2651 8.25 15.295 8.25C15.3699 8.25 15.4298 8.25 15.5046 8.32759L16.6722 9.47587C16.7172 9.53794 16.7621 9.61553 16.7471 9.69311C16.7321 9.7707 16.6573 9.81725 16.6273 9.83277C16.4926 9.91036 16.0735 10.3448 15.2801 11.2138C14.801 11.6949 14.337 12.1759 13.858 12.6414C13.843 12.6569 13.828 12.7035 13.7831 12.7345C13.7382 12.75 13.6933 12.75 13.6334 12.75Z" fill="#AF145B"/>
<path d="M16.8968 7.20304L14.4185 4.98322C14.0435 4.71141 13.587 4.5 13.0652 4.5C12.5435 4.5 12.0217 4.71141 11.6467 5.05873C11.5 5.13423 11.5 5.19464 11.5 5.27014C11.5 5.34564 11.5 5.40605 11.5815 5.48155L14.9565 8.47151C15.0381 8.54701 15.1033 8.54701 15.1033 8.60741C15.8533 9.37755 15.9348 10.4799 15.25 11.2501L16.8968 9.78528C17.2718 9.51346 17.5 9.01513 17.5 8.53191C17.5 8.04868 17.2718 7.55036 16.8968 7.20304Z" fill="url(#paint0_linear_2141_17152)"/>
<path d="M13.8243 12.3698C13.0766 11.6063 12.9954 10.5135 13.7431 9.75L12.1014 11.2021C11.7276 11.5464 11.5 12.0255 11.5 12.5045C11.5 12.9836 11.7276 13.4626 12.1014 13.8069L15.6935 17.1752C15.7748 17.2501 15.8398 17.2501 15.9211 17.2501C16.0024 17.2501 16.0674 17.2501 16.1486 17.1752C16.5225 16.8309 16.75 16.3518 16.75 15.8728C16.75 15.3938 16.5225 14.9147 16.1486 14.5704L13.9056 12.5045C13.8893 12.4297 13.8243 12.4297 13.8243 12.3698Z" fill="url(#paint1_linear_2141_17152)"/>
</g>
<defs>
<filter id="filter0_d_2141_17152" x="0" y="0" width="29" height="29" filterUnits="userSpaceOnUse" color-interpolation-filters="sRGB">
<feFlood flood-opacity="0" result="BackgroundImageFix"/>
<feColorMatrix in="SourceAlpha" type="matrix" values="0 0 0 0 0 0 0 0 0 0 0 0 0 0 0 0 0 0 127 0" result="hardAlpha"/>
<feOffset dy="4"/>
<feGaussianBlur stdDeviation="2"/>
<feComposite in2="hardAlpha" operator="out"/>
<feColorMatrix type="matrix" values="0 0 0 0 0 0 0 0 0 0 0 0 0 0 0 0 0 0 0.25 0"/>
<feBlend mode="normal" in2="BackgroundImageFix" result="effect1_dropShadow_2141_17152"/>
<feBlend mode="normal" in="SourceGraphic" in2="effect1_dropShadow_2141_17152" result="shape"/>
</filter>
<linearGradient id="paint0_linear_2141_17152" x1="11.5" y1="7.87503" x2="17.5" y2="7.87503" gradientUnits="userSpaceOnUse">
<stop stop-color="#CB0766"/>
<stop offset="1" stop-color="#E04391"/>
</linearGradient>
<linearGradient id="paint1_linear_2141_17152" x1="11.4416" y1="13.5" x2="16.7257" y2="13.5" gradientUnits="userSpaceOnUse">
<stop stop-color="#CB0766"/>
<stop offset="1" stop-color="#E04391"/>
</linearGradient>
</defs>
</svg>
